<svg xmlns="http://www.w3.org/2000/svg" width="140" height="140" fill="none"><path fill="#228E9D" d="M40.225 69.3a30.938 30.938 0 1 0 61.876 0 30.938 30.938 0 0 0-61.876 0Z"/><path fill="#ED8F27" d="M38.712 107.122a2.99 2.99 0 0 0 2.99 2.989 2.99 2.99 0 0 0-2.99 2.99 2.99 2.99 0 0 0-2.989-2.99 2.99 2.99 0 0 0 2.99-2.989Z"/><path fill="#ED8F27" d="M40.23 115.965h-3.035V113.1c0-.812-.66-1.471-1.472-1.471H32.86v-3.035h2.864c.812 0 1.472-.66 1.472-1.472v-2.865h3.034v2.865c0 .812.661 1.472 1.473 1.472v3.035c-.812 0-1.473.659-1.473 1.471v2.865Zm4.337-4.336h-2.865v-3.035h2.864v3.035ZM122.147 79.907c0 1.105.896 2.001 2.002 2.001a2.001 2.001 0 0 0-2.002 2.002 2.001 2.001 0 0 0-2.001-2.002 2.001 2.001 0 0 0 2.001-2.001Z"/><path fill="#ED8F27" d="M123.163 85.827h-2.032V83.91a.986.986 0 0 0-.985-.986h-1.918v-2.032h1.918a.984.984 0 0 0 .985-.985v-1.918h2.032v1.918c0 .544.442.985.986.985v2.032a.987.987 0 0 0-.986.986v1.917Zm2.903-2.903h-1.917v-2.032h1.917v2.032ZM109.224 86.22a2.99 2.99 0 0 0 2.99 2.99 2.99 2.99 0 0 0-2.99 2.99 2.99 2.99 0 0 0-2.989-2.99 2.989 2.989 0 0 0 2.989-2.99Z"/><path fill="#ED8F27" d="M110.742 95.064h-3.035v-2.865c0-.811-.66-1.471-1.472-1.471h-2.865v-3.035h2.865c.812 0 1.472-.66 1.472-1.472v-2.865h3.035v2.864c0 .812.659 1.473 1.471 1.473v3.035c-.812 0-1.471.66-1.471 1.471v2.865Zm4.336-4.336h-2.864v-3.035h2.864v3.035ZM98.046 106.553c0 1.127.914 2.041 2.042 2.041h1.955-1.955a2.042 2.042 0 0 0-2.042 2.042 2.042 2.042 0 0 0-2.041-2.042 2.04 2.04 0 0 0 2.041-2.041Z"/><path fill="#ED8F27" d="M99.082 112.592H97.01v-1.956c0-.554-.451-1.006-1.006-1.006h-1.956v-2.072h1.956c.555 0 1.006-.451 1.006-1.005v-1.956h2.072v1.956c0 .554.451 1.005 1.006 1.005v2.073c-.555 0-1.006.451-1.006 1.005v1.956Zm2.962-2.962h-1.956v-2.072h1.956v2.072ZM20.449 55.859a2.99 2.99 0 0 0 2.99 2.99 2.99 2.99 0 0 0-2.99 2.989 2.99 2.99 0 0 0-2.99-2.99 2.99 2.99 0 0 0 2.99-2.99Z"/><path fill="#ED8F27" d="M21.966 64.703h-3.034v-2.865c0-.812-.661-1.473-1.473-1.473h-2.864v-3.034h2.864c.812 0 1.473-.66 1.473-1.473v-2.864h3.034v2.864c0 .812.66 1.473 1.472 1.473v3.034c-.812 0-1.472.661-1.472 1.473v2.864Zm4.336-4.338h-2.864v-3.034h2.864v3.034Z"/><path fill="#300604" d="M81.685 100.968c-17.548 5.831-36.57-3.7-42.4-21.249-5.832-17.548 3.7-36.569 21.248-42.4 17.548-5.832 36.569 3.7 42.401 21.248 5.831 17.548-3.701 36.57-21.25 42.401ZM61.49 40.198c-15.96 5.304-24.63 22.604-19.326 38.564 5.304 15.96 22.604 24.63 38.564 19.326 15.96-5.303 24.63-22.603 19.326-38.564-5.304-15.96-22.604-24.63-38.564-19.326Z"/><path fill="#300604" d="M41.398 96.676c-8.796 2.923-15.758 3.729-17.75.334-2.85-4.852 6.803-14.015 15.404-20.849l1.887 2.377C27.167 89.48 25.676 94.474 26.264 95.475c1.882 3.205 22.088-2.394 49.465-18.466 12.244-7.19 23.188-14.887 30.816-21.674 8.709-7.75 9.963-11.58 9.409-12.523-.593-1.01-5.737-2.14-22.203 4.672l-1.16-2.804c10.268-4.25 23.113-8.288 25.98-3.404 1.926 3.28-1.348 8.62-10.009 16.326-7.772 6.915-18.887 14.737-31.298 22.023-10.657 6.259-24.731 13.35-35.866 17.05Z"/><path fill="#B12800" d="M27.546 45.52a4.97 4.97 0 1 0 9.94 0 4.97 4.97 0 0 0-9.94 0Z"/><path fill="#300604" d="M32.517 52.008a6.495 6.495 0 0 1-6.489-6.487 6.495 6.495 0 0 1 6.489-6.488 6.494 6.494 0 0 1 6.487 6.488 6.494 6.494 0 0 1-6.487 6.487Zm0-9.94a3.458 3.458 0 0 0-3.455 3.453 3.457 3.457 0 0 0 3.454 3.453 3.457 3.457 0 0 0 3.454-3.453 3.457 3.457 0 0 0-3.453-3.453Z"/><path fill="#FCE3C3" d="M87.907 41.89a11.98 11.98 0 0 0 .701-9.249c-2.094-6.3-8.898-9.71-15.198-7.616-5.454 1.812-8.734 7.156-8.16 12.645 8.004-1.5 16.046.15 22.657 4.22Z"/><path fill="#300604" d="m88.512 44.043-1.401-.862c-6.476-3.987-14.14-5.414-21.582-4.02l-1.617.304-.171-1.637c-.656-6.265 3.21-12.256 9.19-14.243 7.085-2.354 14.762 1.494 17.117 8.578 1.15 3.46.87 7.16-.79 10.415l-.746 1.465ZM66.717 35.9a33.41 33.41 0 0 1 20.46 3.813 10.407 10.407 0 0 0-.009-6.593c-1.826-5.496-7.783-8.482-13.279-6.655-4.123 1.37-6.95 5.19-7.172 9.435Z"/><path fill="#ED8F27" d="M55.88 97.299c-2.027 2.815-2.73 6.524-1.552 10.068 1.95 5.866 8.285 9.041 14.15 7.091 5.695-1.892 8.838-7.917 7.234-13.634a31.942 31.942 0 0 1-19.832-3.525Z"/><path fill="#300604" d="M68.957 115.898c-6.65 2.21-13.858-1.402-16.069-8.052a12.75 12.75 0 0 1 1.76-11.434l.78-1.082 1.173.634c5.833 3.153 12.366 4.315 18.892 3.36l1.32-.195.36 1.286a12.683 12.683 0 0 1-8.216 15.483ZM56.425 99.285a9.7 9.7 0 0 0-.657 7.604c1.682 5.062 7.17 7.812 12.232 6.13a9.651 9.651 0 0 0 6.518-10.517 33.174 33.174 0 0 1-18.093-3.217ZM89.077 54.51c-.024-.042-2.61-4.473-7.212-6.78-4.628-2.319-9.42-1.96-9.468-1.957l-.253-2.997c.229-.02 5.658-.446 11.068 2.266 5.439 2.725 8.357 7.766 8.478 7.979l-2.613 1.49Zm3.817.456 1.622 3.321-2.702 1.32-1.622-3.32 2.702-1.32Z"/></svg>