<svg xmlns="http://www.w3.org/2000/svg" width="140" height="140" fill="none"><path fill="#FCE3C3" d="M114.539 47.068v61.185H38.722V26.785H92.68l21.859 20.283Z"/><path fill="#300604" d="M114.539 109.893H38.722l-1.64-1.64V26.785l1.64-1.64H92.68l1.116.438 21.858 20.282.525 1.203v61.185l-1.64 1.64Zm-74.176-3.281h72.535V47.783L92.036 28.426H40.363v78.186Z"/><path fill="#ED8F27" d="M92.68 26.785v20.283h21.859L92.68 26.785Z"/><path fill="#300604" d="M114.539 48.708H92.68l-1.64-1.64V26.785l2.756-1.202 21.858 20.282-1.115 2.843Zm-20.218-3.281h16.037L94.321 30.546v14.881Zm-7.03 16.551h18.657v4.193H87.291v-4.193Zm0 9.278h18.657v4.192H87.291v-4.192Z"/><path fill="#B12800" d="M19 58.141h48.212v61.23H19v-61.23Z"/><path fill="#300604" d="M67.212 121.011H19l-1.641-1.64v-61.23l1.64-1.64h48.213l1.64 1.64v61.23l-1.64 1.64ZM20.64 117.73h44.932V59.782H20.64v57.948Z"/><path fill="#300604" d="M25.592 65.524H60.27v7.828H25.592v-7.828Z"/><path fill="#228E9D" d="M43.413 95.325H59.81v17.986H43.412V95.325Z"/><path fill="#FCE3C3" d="M25.924 78.092h16.398v17.986H25.924V78.092Z"/><path fill="#ED8F27" d="M25.924 96.019h16.398v17.986H25.924V96.019Zm17.489-17.473H59.81v17.986H43.412V78.546Z"/><path fill="#300604" d="M67.212 119.371H19v-61.23h48.213v61.23ZM21.098 60.239v57.034h44.017V60.239H21.098Z"/><path fill="#300604" d="M61.32 113.821H24.893V77.393H61.32v36.428Zm-34.329-2.099h32.23v-32.23h-32.23v32.23ZM61.32 74.543H24.893v-9.596H61.32v9.596ZM26.99 72.445h32.23v-5.4h-32.23v5.4Z"/><path fill="#300604" d="M25.942 94.558H60.27v2.098H25.942v-2.098Z"/><path fill="#300604" d="M42.057 78.442h2.098v34.33h-2.098v-34.33Zm-12.46 7.795h9.053v2.098h-9.054v-2.098Z"/><path fill="#300604" d="M33.074 82.76h2.098v9.053h-2.098V82.76Zm-1.405 17.845 6.403 6.402-1.484 1.483-6.402-6.402 1.483-1.483Z"/><path fill="#300604" d="m36.583 100.602 1.483 1.483-6.402 6.403-1.483-1.484 6.402-6.402Zm10.695-14.365h9.055v2.098h-9.055v-2.098Zm0 14.908h9.055v2.099h-9.055v-2.099Zm0 4.261h9.055v2.098h-9.055v-2.098ZM91.351 90.892h5.44v4.072h-5.44v-4.072ZM102.087 90.892h3.206v4.072h-3.206v-4.072ZM83.844 90.892h3.206v4.072h-3.206v-4.072ZM48.755 37.936h14.35v4.073h-14.35v-4.073ZM66.955 37.936h4.831v4.073h-4.83v-4.073Z"/></svg>