<svg xmlns="http://www.w3.org/2000/svg" width="20" height="20" fill="none"><path fill="#272727" fill-rule="evenodd" d="M6.25 15.662c-1.17 0-2.32.308-3.333.893a.833.833 0 1 1-.834-1.443A8.333 8.333 0 0 1 10 14.887a8.334 8.334 0 0 1 7.917.225.833.833 0 0 1-.834 1.443 6.666 6.666 0 0 0-6.666 0 .833.833 0 0 1-.834 0 6.667 6.667 0 0 0-3.333-.893ZM6.25 4.829c-1.17 0-2.32.308-3.333.893a.833.833 0 1 1-.834-1.444A8.333 8.333 0 0 1 10 4.053a8.333 8.333 0 0 1 7.917.225.833.833 0 1 1-.834 1.444 6.666 6.666 0 0 0-6.666 0 .833.833 0 0 1-.834 0 6.667 6.667 0 0 0-3.333-.893Z" clip-rule="evenodd"/><path fill="#272727" fill-rule="evenodd" d="M2.5 4.167c.46 0 .833.373.833.833v10.833a.833.833 0 1 1-1.666 0V5c0-.46.373-.833.833-.833ZM10 4.167c.46 0 .833.373.833.833v10.833a.833.833 0 1 1-1.666 0V5c0-.46.373-.833.833-.833ZM17.5 4.167c.46 0 .833.373.833.833v10.833a.833.833 0 1 1-1.666 0V5c0-.46.373-.833.833-.833Z" clip-rule="evenodd"/></svg>