<svg xmlns="http://www.w3.org/2000/svg" width="20" height="20" fill="none"><path fill="#272727" fill-rule="evenodd" d="M5.833 17.5c0-.46.373-.833.834-.833H10a.833.833 0 0 1 0 1.666H6.667a.833.833 0 0 1-.834-.833Z" clip-rule="evenodd"/><path fill="#272727" fill-rule="evenodd" d="M8.333 1.667c.46 0 .834.373.834.833v15a.833.833 0 0 1-1.667 0v-15c0-.46.373-.833.833-.833Z" clip-rule="evenodd"/><path fill="#272727" fill-rule="evenodd" d="M7.572 2.995a.833.833 0 0 1 1.1-.423l7.5 3.333a.833.833 0 0 1 0 1.523l-7.5 3.333a.833.833 0 0 1-.677-1.523l5.786-2.571-5.786-2.572a.833.833 0 0 1-.423-1.1Z" clip-rule="evenodd"/></svg>