<svg xmlns="http://www.w3.org/2000/svg" width="154" height="60" fill="none"><path fill="#FF6E40" d="m72.353 37.95-1.612-3.149a2.575 2.575 0 0 1 .41-.027 3.325 3.325 0 0 1 .396.027l1.188 2.466 1.174-2.466a2.718 2.718 0 0 1 .573-.02c.066.005.13.011.19.02l-1.59 3.15v1.816a2.755 2.755 0 0 1-.368.028c-.062 0-.124-.002-.188-.007a1.811 1.811 0 0 1-.173-.02V37.95Zm4.759 1.9a2.21 2.21 0 0 1-.954-.19 1.811 1.811 0 0 1-.669-.532 2.33 2.33 0 0 1-.396-.811 3.818 3.818 0 0 1-.13-1.03c0-.372.043-.716.13-1.029.087-.313.22-.583.396-.811.177-.228.4-.407.668-.535.27-.13.587-.194.955-.194s.686.065.955.194c.269.129.49.307.668.535.177.228.307.498.392.811.085.313.127.657.127 1.03s-.042.716-.127 1.029a2.28 2.28 0 0 1-.392.811 1.81 1.81 0 0 1-.668.532 2.22 2.22 0 0 1-.955.19Zm0-.608c.236 0 .44-.045.612-.134.172-.09.315-.22.428-.39.113-.17.198-.376.254-.615a3.56 3.56 0 0 0 .085-.815c0-.3-.028-.57-.085-.812a1.842 1.842 0 0 0-.254-.615 1.154 1.154 0 0 0-.428-.387 1.305 1.305 0 0 0-.612-.134c-.236 0-.44.044-.611.134-.173.09-.315.22-.428.387a1.84 1.84 0 0 0-.255.615 3.574 3.574 0 0 0-.085.812c0 .304.028.575.085.815.057.24.142.444.255.614.113.17.255.3.428.39.171.09.375.135.611.135Zm3.146-4.441a3.047 3.047 0 0 1 .722 0v2.818c0 .286.019.53.056.733.038.202.1.367.184.493.085.127.197.22.336.28.14.06.31.09.513.09.202 0 .372-.03.508-.09a.759.759 0 0 0 .333-.28 1.29 1.29 0 0 0 .183-.493c.038-.203.057-.447.057-.733v-2.818a3.101 3.101 0 0 1 .728 0v2.943c0 .331-.031.628-.095.891a1.672 1.672 0 0 1-.311.663c-.144.18-.332.317-.562.411a2.229 2.229 0 0 1-.842.141c-.33 0-.61-.047-.842-.141a1.365 1.365 0 0 1-.562-.411c-.144-.18-.247-.4-.311-.663a3.793 3.793 0 0 1-.096-.891V34.8h.001Zm4.83-.007c.104-.008.198-.018.283-.027a9.467 9.467 0 0 1 .509-.042 5.39 5.39 0 0 1 .297-.007c.24 0 .478.024.714.07.236.045.446.126.63.241.183.115.333.27.448.466.116.196.174.444.174.743 0 .18-.031.343-.092.49a1.558 1.558 0 0 1-.555.694c-.12.086-.237.156-.35.211l-.085.042 1.478 2.093a4.043 4.043 0 0 1-.813 0l-1.627-2.3v-.028l.057-.014a3.41 3.41 0 0 0 .403-.131c.142-.055.272-.128.393-.218.12-.09.22-.198.3-.325.08-.126.12-.28.12-.459 0-.331-.1-.577-.3-.739-.2-.16-.47-.242-.81-.242-.08 0-.154.003-.223.008a5.856 5.856 0 0 0-.23.02v4.428l-.173.013a2.448 2.448 0 0 1-.18.007 6.12 6.12 0 0 1-.184-.003 1.49 1.49 0 0 1-.184-.017v-4.974Zm6.76.622h-1.323a1.8 1.8 0 0 1 0-.615h3.366a1.403 1.403 0 0 1 .028.297 2.05 2.05 0 0 1-.028.318h-1.322v4.351a3.038 3.038 0 0 1-.721 0v-4.35Zm4.892 3.204h-1.93l-.346 1.147a2.735 2.735 0 0 1-.368.028 3.12 3.12 0 0 1-.195-.007 1.821 1.821 0 0 1-.173-.02l1.655-4.967a2.558 2.558 0 0 1 .417-.027 3.23 3.23 0 0 1 .41.027l1.648 4.966a3.025 3.025 0 0 1-.583.02 2.19 2.19 0 0 1-.18-.02l-.355-1.146Zm-1.739-.614h1.549l-.778-2.535-.77 2.535Zm6.364-.808a2.097 2.097 0 0 1 .361-.027 1.836 1.836 0 0 1 .353.027v2.425a2.337 2.337 0 0 1-.325.107c-.118.03-.24.052-.367.069a7.48 7.48 0 0 1-.382.038 5.141 5.141 0 0 1-.361.013c-.377 0-.717-.057-1.018-.172a2.04 2.04 0 0 1-.764-.5 2.21 2.21 0 0 1-.477-.799 3.177 3.177 0 0 1-.167-1.063c0-.396.057-.754.17-1.074a2.32 2.32 0 0 1 .484-.819c.21-.225.46-.4.75-.521.29-.122.612-.183.965-.183.269 0 .502.017.7.052.198.034.377.081.538.141-.01.106-.03.204-.061.294-.03.09-.067.185-.109.286a4.763 4.763 0 0 0-.428-.11 2.871 2.871 0 0 0-.576-.048c-.25 0-.478.043-.683.13-.205.088-.38.216-.523.384a1.8 1.8 0 0 0-.336.622c-.08.246-.12.528-.12.846 0 .327.041.609.124.846.082.237.199.435.35.594.15.159.328.276.533.352.205.076.433.114.683.114a2.701 2.701 0 0 0 .686-.083v-1.94Zm1.874-2.397a1.809 1.809 0 0 1 .353-.027 2.534 2.534 0 0 1 .361.027v4.345h1.994c.009.05.015.103.017.158a2.173 2.173 0 0 1-.017.463h-2.709l.001-4.966Zm3.5 0a2.175 2.175 0 0 1 .36-.027 2.493 2.493 0 0 1 .361.027v4.967a2.237 2.237 0 0 1-.548.02 1.848 1.848 0 0 1-.173-.02V34.8Zm1.966 0a1.854 1.854 0 0 1 .332-.027 2.182 2.182 0 0 1 .332.027l2.213 3.73v-3.73a2.284 2.284 0 0 1 .524-.02c.057.004.11.011.163.02v4.967a1.95 1.95 0 0 1-.499.02 1.855 1.855 0 0 1-.166-.02l-2.22-3.71v3.71a1.855 1.855 0 0 1-.339.027 2.14 2.14 0 0 1-.181-.007 1.535 1.535 0 0 1-.159-.02V34.8Zm4.808 0h2.793c.014.092.021.194.021.304l-.003.16a1.104 1.104 0 0 1-.018.151h-2.072v1.423h1.654c.01.046.017.096.022.148a2.077 2.077 0 0 1 0 .315 1.246 1.246 0 0 1-.022.152h-1.654v1.699h2.128c.014.092.021.193.021.304l-.003.16a1.108 1.108 0 0 1-.018.15h-2.849v-4.966Zm8.407 2.397a2.097 2.097 0 0 1 .361-.027 1.836 1.836 0 0 1 .353.027v2.425a2.382 2.382 0 0 1-.325.107c-.118.03-.24.052-.367.069a7.48 7.48 0 0 1-.382.038 5.141 5.141 0 0 1-.361.013 2.84 2.84 0 0 1-1.018-.172 2.034 2.034 0 0 1-.764-.5 2.195 2.195 0 0 1-.477-.799 3.169 3.169 0 0 1-.167-1.063c0-.396.057-.754.17-1.074.113-.32.275-.593.484-.819.21-.225.46-.4.75-.521.29-.122.611-.183.965-.183.268 0 .502.017.7.052.198.034.377.081.537.141a1.208 1.208 0 0 1-.06.294c-.031.09-.067.185-.109.286a4.763 4.763 0 0 0-.428-.11 2.878 2.878 0 0 0-.576-.048c-.25 0-.478.043-.683.13a1.406 1.406 0 0 0-.523.384 1.777 1.777 0 0 0-.335.622 2.706 2.706 0 0 0-.121.846c0 .327.042.609.124.846.082.237.199.435.35.594.151.159.329.276.534.352.205.076.432.114.682.114a2.701 2.701 0 0 0 .686-.083v-1.94Zm3.833 2.652c-.368 0-.686-.063-.955-.19a1.809 1.809 0 0 1-.668-.532 2.318 2.318 0 0 1-.396-.811 3.834 3.834 0 0 1-.131-1.03c0-.372.044-.716.131-1.029.087-.313.219-.583.396-.811.177-.228.399-.407.668-.535.269-.13.587-.194.955-.194.367 0 .685.065.954.194.269.129.492.307.668.535.177.228.308.498.393.811.084.313.127.657.127 1.03s-.043.716-.127 1.029a2.28 2.28 0 0 1-.393.811 1.8 1.8 0 0 1-.668.532 2.22 2.22 0 0 1-.954.19Zm0-.608c.235 0 .439-.045.611-.134.172-.09.315-.22.428-.39a1.9 1.9 0 0 0 .255-.615 3.59 3.59 0 0 0 .084-.815c0-.3-.028-.57-.084-.812a1.857 1.857 0 0 0-.255-.615 1.155 1.155 0 0 0-.428-.387 1.302 1.302 0 0 0-.611-.134c-.236 0-.44.044-.612.134-.172.09-.314.22-.428.387a1.836 1.836 0 0 0-.254.615 3.546 3.546 0 0 0-.085.812c0 .304.028.575.085.815.056.24.141.444.254.614.114.17.256.3.428.39.172.09.376.135.612.135Zm3.196-4.441h2.792a1.9 1.9 0 0 1 .022.304c0 .05-.001.104-.004.16a.862.862 0 0 1-.018.151h-2.071v1.423h1.654a1.653 1.653 0 0 1 .021.463 1.083 1.083 0 0 1-.021.152h-1.654v1.699h2.128c.014.092.021.193.021.304 0 .05-.001.104-.004.16a.976.976 0 0 1-.017.15h-2.85v-4.966h.001Zm3.662 4.214c.156.055.318.103.488.145.17.041.377.062.622.062.387 0 .676-.077.866-.231a.762.762 0 0 0 .287-.626.83.83 0 0 0-.06-.331.639.639 0 0 0-.18-.239 1.4 1.4 0 0 0-.301-.183 9.579 9.579 0 0 0-.421-.18l-.403-.158a2.757 2.757 0 0 1-.374-.183 1.107 1.107 0 0 1-.488-.58 1.3 1.3 0 0 1-.071-.452c0-.42.146-.748.438-.985.293-.237.703-.355 1.231-.355a3.582 3.582 0 0 1 1.181.193 2.137 2.137 0 0 1-.156.573 3.528 3.528 0 0 0-.442-.125 2.652 2.652 0 0 0-.569-.055c-.297 0-.526.059-.686.176-.16.118-.24.294-.24.529 0 .096.019.183.06.259.04.076.093.143.159.2.066.057.143.11.233.155a2.6 2.6 0 0 0 .283.125l.396.152c.189.073.356.15.502.231.146.08.271.175.375.283.103.109.182.236.237.384.054.147.081.32.081.518 0 .474-.167.848-.502 1.122-.334.274-.804.411-1.407.411a4.99 4.99 0 0 1-.396-.014 3.224 3.224 0 0 1-.622-.11 9.839 9.839 0 0 1-.29-.09c.009-.101.031-.205.063-.31.033-.107.068-.21.106-.311Zm5.657-4.214a2.284 2.284 0 0 1 .545-.02c.061.005.12.011.176.02v2.045h2.164V34.8a1.836 1.836 0 0 1 .353-.027 2.666 2.666 0 0 1 .368.027v4.967a2.465 2.465 0 0 1-.721 0v-2.3h-2.164v2.3a2.237 2.237 0 0 1-.548.02 1.809 1.809 0 0 1-.173-.02V34.8Zm4.851 0h2.792a1.9 1.9 0 0 1 .022.304c0 .05-.002.104-.004.16a.862.862 0 0 1-.018.151h-2.072v1.423h1.655a1.653 1.653 0 0 1 0 .615h-1.655v1.699h2.129c.014.092.021.193.021.304l-.003.16a1.108 1.108 0 0 1-.018.15h-2.85v-4.966h.001Zm3.803-.007c.104-.008.198-.018.284-.027a9.16 9.16 0 0 1 .508-.042c.09-.005.189-.007.297-.007.241 0 .479.024.715.07.236.045.445.126.629.241.184.115.334.27.449.466.116.196.173.444.173.743 0 .18-.03.343-.092.49a1.56 1.56 0 0 1-.555.694c-.12.086-.237.156-.35.211l-.084.042 1.477 2.093a4.033 4.033 0 0 1-.813 0l-1.626-2.3v-.028l.056-.014a3.41 3.41 0 0 0 .403-.131c.141-.055.272-.128.392-.218.121-.09.221-.198.301-.325.08-.126.12-.28.12-.459 0-.331-.1-.577-.3-.739-.201-.16-.47-.242-.81-.242-.08 0-.154.003-.222.008a5.79 5.79 0 0 0-.23.02v4.428l-.174.013a2.417 2.417 0 0 1-.18.007l-.184-.003a1.495 1.495 0 0 1-.184-.017v-4.974Zm4.208.007h2.793c.014.092.021.194.021.304 0 .05-.002.104-.004.16a.862.862 0 0 1-.018.151h-2.072v1.423h1.655a1.653 1.653 0 0 1 0 .615h-1.655v1.699h2.129c.014.092.021.193.021.304 0 .05-.001.104-.004.16a.864.864 0 0 1-.018.15h-2.849v-4.966h.001Z"/><path fill="#fff" d="M73.361 19.532c.105-.019.218-.033.338-.043a5.106 5.106 0 0 1 1.116.043v8.846h4.06c.02.104.032.212.037.324.004.113.007.216.007.31 0 .225-.014.435-.043.633H73.36V19.532Zm12.225 7.778h-3.931l-.706 2.335a4.962 4.962 0 0 1-.749.056 5.68 5.68 0 0 1-.395-.014 3.404 3.404 0 0 1-.353-.043l3.37-10.112a5.28 5.28 0 0 1 .402-.043 7.143 7.143 0 0 1 .864 0c.144.01.283.024.418.043l3.355 10.113a4.01 4.01 0 0 1-.389.042 5.516 5.516 0 0 1-.8 0 4.053 4.053 0 0 1-.366-.043l-.72-2.334Zm-3.542-1.252h3.153l-1.584-5.162-1.57 5.162Zm8.74-.113L87.5 19.532a5.28 5.28 0 0 1 .403-.043 6.923 6.923 0 0 1 .843 0c.148.01.28.024.396.043l2.418 5.02 2.39-5.02a5.394 5.394 0 0 1 1.166-.042c.136.01.265.023.39.041l-3.24 6.414v3.7a4.972 4.972 0 0 1-1.483 0v-3.7Zm6.249-6.413h5.688c.029.188.043.393.043.619 0 .103-.003.21-.007.323a2.015 2.015 0 0 1-.036.31h-4.22v2.897h3.37a3.423 3.423 0 0 1 0 1.252h-3.37v3.46h4.335c.029.187.043.393.043.618 0 .103-.002.21-.007.324a2.013 2.013 0 0 1-.036.31h-5.803V19.531Zm7.747-.015c.211-.018.403-.037.576-.056a19.56 19.56 0 0 1 1.036-.084c.183-.01.384-.014.605-.014.49 0 .975.047 1.455.14.479.094.907.258 1.28.493.375.234.68.55.915.949.235.399.353.902.353 1.512 0 .366-.063.698-.187.999a3.212 3.212 0 0 1-1.131 1.413 5.165 5.165 0 0 1-.712.43l-.173.084 3.009 4.262a8.185 8.185 0 0 1-1.655 0l-3.312-4.684v-.056l.115-.029c.259-.065.533-.154.821-.267a3.39 3.39 0 0 0 .799-.443c.245-.183.448-.403.612-.661.163-.258.245-.57.245-.935 0-.675-.205-1.177-.612-1.505-.409-.328-.958-.493-1.649-.493a7 7 0 0 0-.453.014c-.14.01-.295.024-.469.043v9.015c-.105.01-.223.02-.352.028-.13.01-.252.014-.368.014-.115 0-.24-.002-.374-.007a2.974 2.974 0 0 1-.374-.035V19.517Zm11.98.015c.105-.019.218-.033.338-.043a5.105 5.105 0 0 1 1.116.043v8.846h4.061c.019.104.031.212.036.324a7 7 0 0 1 .007.31c0 .225-.015.435-.043.633h-5.515V19.532Zm10.683 10.281c-.748 0-1.396-.129-1.944-.387a3.68 3.68 0 0 1-1.36-1.083 4.747 4.747 0 0 1-.807-1.652 7.817 7.817 0 0 1-.266-2.096c0-.76.089-1.458.266-2.096a4.748 4.748 0 0 1 .807-1.652 3.75 3.75 0 0 1 1.36-1.09c.548-.263 1.195-.394 1.944-.394.749 0 1.397.131 1.944.394a3.748 3.748 0 0 1 1.361 1.09c.36.464.626 1.015.799 1.652.173.638.259 1.337.259 2.096a7.99 7.99 0 0 1-.259 2.096 4.645 4.645 0 0 1-.799 1.652c-.36.464-.814.826-1.361 1.083-.547.258-1.195.387-1.944.387Zm0-1.238c.48 0 .895-.091 1.246-.274.35-.183.641-.448.871-.795a3.82 3.82 0 0 0 .518-1.252c.115-.487.173-1.04.173-1.66 0-.609-.058-1.16-.173-1.652a3.756 3.756 0 0 0-.518-1.252 2.351 2.351 0 0 0-.871-.788c-.351-.182-.766-.274-1.246-.274s-.895.092-1.245.274a2.344 2.344 0 0 0-.871.788c-.231.343-.403.76-.518 1.252a7.225 7.225 0 0 0-.174 1.653c0 .619.058 1.172.174 1.66.115.487.288.904.518 1.251.23.347.52.612.871.795.35.183.765.274 1.245.274Zm12.499-4.163a5.026 5.026 0 0 1 1.109-.042c.125.01.24.023.345.042v4.937a4.745 4.745 0 0 1-.662.218c-.24.06-.49.108-.749.14-.259.033-.518.059-.777.078-.26.019-.504.028-.735.028-.768 0-1.459-.117-2.073-.352a4.139 4.139 0 0 1-1.555-1.02 4.49 4.49 0 0 1-.972-1.624c-.226-.637-.339-1.36-.339-2.166 0-.806.116-1.535.346-2.187a4.72 4.72 0 0 1 .986-1.667c.428-.46.936-.813 1.527-1.061a5.012 5.012 0 0 1 1.965-.373 8.44 8.44 0 0 1 1.426.105 6.2 6.2 0 0 1 1.094.288c-.02.216-.06.415-.122.598a9.897 9.897 0 0 1-.223.584 9.368 9.368 0 0 0-.872-.225 5.814 5.814 0 0 0-1.173-.099c-.509 0-.972.09-1.39.268a2.849 2.849 0 0 0-1.065.78 3.661 3.661 0 0 0-.685 1.266c-.163.502-.244 1.076-.244 1.723 0 .666.083 1.24.252 1.723.167.483.405.886.712 1.21.307.323.67.563 1.087.717a3.98 3.98 0 0 0 1.39.232c.307 0 .576-.016.806-.05.231-.032.427-.072.591-.119v-3.952Zm7.804 5.401c-.749 0-1.396-.129-1.943-.387a3.678 3.678 0 0 1-1.361-1.083 4.728 4.728 0 0 1-.806-1.652 7.776 7.776 0 0 1-.267-2.096c0-.76.089-1.458.267-2.096a4.73 4.73 0 0 1 .806-1.652c.36-.464.814-.827 1.361-1.09.547-.263 1.194-.394 1.943-.394.749 0 1.397.131 1.944.394a3.748 3.748 0 0 1 1.361 1.09c.36.464.626 1.015.799 1.652.173.638.259 1.337.259 2.096a7.99 7.99 0 0 1-.259 2.096 4.645 4.645 0 0 1-.799 1.652c-.36.464-.814.826-1.361 1.083-.547.258-1.195.387-1.944.387Zm0-1.238c.48 0 .895-.091 1.246-.274.35-.183.641-.448.871-.795.23-.346.403-.764.518-1.252a7.2 7.2 0 0 0 .173-1.66c0-.609-.057-1.16-.173-1.652a3.756 3.756 0 0 0-.518-1.252 2.351 2.351 0 0 0-.871-.788c-.351-.182-.766-.274-1.246-.274s-.895.092-1.245.274a2.344 2.344 0 0 0-.871.788 3.75 3.75 0 0 0-.519 1.252 7.284 7.284 0 0 0-.173 1.653c0 .619.058 1.172.173 1.66.115.487.288.904.519 1.251.23.347.52.612.871.795.35.183.765.274 1.245.274Z"/><path fill="#127271" d="m0 10.965 38.29 21.593 9.572 26.992L0 32.558V10.965Z"/><path fill="#008477" d="m9.572 5.566 38.29 21.594 9.572 26.992L9.572 27.16V5.566Z"/><path fill="#009D8E" d="M19.145.168v21.594l47.86 26.992-9.571-26.992L19.144.168Z"/></svg>