<svg xmlns="http://www.w3.org/2000/svg" width="20" height="20" fill="none"><path fill="#272727" fill-rule="evenodd" d="M10 3.333a6.667 6.667 0 1 0 0 13.334 6.667 6.667 0 0 0 0-13.334ZM1.667 10a8.333 8.333 0 1 1 16.666 0 8.333 8.333 0 0 1-16.666 0Z" clip-rule="evenodd"/><path fill="#272727" fill-rule="evenodd" d="M6.667 8.333c0-.46.373-.833.833-.833h.008a.833.833 0 1 1 0 1.667H7.5a.833.833 0 0 1-.833-.834ZM11.667 8.333c0-.46.373-.833.833-.833h.008a.833.833 0 1 1 0 1.667H12.5a.833.833 0 0 1-.833-.834ZM7.333 11.905a.833.833 0 0 1 1.179.012 2.083 2.083 0 0 0 2.976 0 .833.833 0 0 1 1.19 1.166 3.748 3.748 0 0 1-5.357 0 .833.833 0 0 1 .012-1.178Z" clip-rule="evenodd"/></svg>