<svg xmlns="http://www.w3.org/2000/svg" width="140" height="140" fill="none"><path fill="#ED8F27" d="M29.45 102.218a5.056 5.056 0 0 0 5.057 5.057 5.056 5.056 0 0 0-5.056 5.056 5.056 5.056 0 0 0-5.056-5.056 5.057 5.057 0 0 0 5.056-5.057Z"/><path fill="#ED8F27" d="M31.17 116.536h-3.439v-4.205a3.34 3.34 0 0 0-3.337-3.337h-4.206v-3.439h4.206a3.34 3.34 0 0 0 3.338-3.337v-4.205h3.439v4.205a3.34 3.34 0 0 0 3.335 3.337v3.439a3.34 3.34 0 0 0-3.335 3.337v4.205Zm-2.27-9.262c.194.173.378.357.551.551a6.66 6.66 0 0 1 .55-.551 6.498 6.498 0 0 1-.55-.55 6.602 6.602 0 0 1-.55.55Zm9.813 1.72h-4.207v-3.439h4.206v3.439ZM98.647 18.375a5.522 5.522 0 0 0 5.523 5.523 5.523 5.523 0 0 0-5.523 5.523 5.523 5.523 0 0 0-5.522-5.523 5.523 5.523 0 0 0 5.522-5.523Z"/><path fill="#ED8F27" d="M100.526 34.013H96.77v-4.592a3.649 3.649 0 0 0-3.645-3.645H88.53V22.02h4.594a3.649 3.649 0 0 0 3.645-3.645v-4.593h3.756v4.593a3.649 3.649 0 0 0 3.644 3.645v3.756a3.649 3.649 0 0 0-3.644 3.645v4.592Zm-2.48-10.115c.212.189.413.39.602.601.188-.212.388-.413.6-.601a7.128 7.128 0 0 1-.6-.602c-.19.212-.39.413-.602.602Zm10.717 1.878h-4.593V22.02h4.593v3.756Z"/><path fill="#300604" d="M66.78 115.128h5.439v4.072h-5.44v-4.072Zm35.269-80.077h14.35v4.073h-14.35v-4.073Zm18.201 0h4.831v4.073h-4.831v-4.073Zm-42.735 80.077h3.206v4.072h-3.206v-4.072Zm-18.243 0h3.206v4.072h-3.206v-4.072Z"/><path fill="#FCE3C3" d="M124.606 50.94v46.43l-14.025-.087s-14.25 16.732-14.087 16.706c.164-.025 0-16.86 0-16.86l-36.888.24V50.94h65Z"/><path fill="#300604" d="M95.567 98.81H57.92V49.48h68.146v49.33h-14.807L95.567 116.95V98.811Zm27.579-46.41H60.84v43.49h37.647v13.221l11.438-13.22h13.221V52.4Z"/><path fill="#300604" d="M95.235 117.841V99.143H57.588V49.148h68.81v49.995h-14.987L95.235 117.84ZM58.252 98.479h37.647v17.579l15.208-17.58h14.627V49.813H58.252V98.48Zm39.903 11.523v-13.78H60.508V52.069h62.97v44.155h-13.402l-11.921 13.779ZM61.172 95.559h37.647v12.661l10.954-12.661h13.041V52.732H61.172V95.56Z"/><path fill="#228E9D" d="M90.002 50.983V33.63H15.159v47.038h11.948l12.097 13.798-.16-13.798H59.27V50.983h30.732Z"/><path fill="#300604" d="m39.647 96.647-14-14.517H13.7V32.17h77.763v20.273H60.73V82.13H39.712l-.065 14.517ZM16.62 79.21h10.366L37.136 89.85l.032-10.641H57.81V49.523h30.732V35.091H16.619V79.21Z"/><path fill="#300604" d="M39.975 97.466 25.506 82.462h-12.14V31.839h78.428v20.936H61.062v29.687h-21.02l-.067 15.004ZM14.031 81.798h11.757l13.53 14.03.063-14.03h21.017V52.11H91.13V32.503h-77.1v49.295Zm23.435 8.88L26.843 79.541H16.287V34.759h72.587v15.096H58.142v29.687H37.499l-.033 11.135Zm-20.515-11.8h10.176l9.68 10.146.03-10.146h20.64V49.19H88.21V35.423H16.95v43.455Z"/><path fill="#ED8F27" d="M43.88 61.567c.533.36 1.115.71 1.746 1.05.631.34 1.049.611 1.254.812.205.201.307.486.307.854 0 .263-.12.525-.362.787a1.152 1.152 0 0 1-.88.393c-.278 0-.616-.09-1.013-.27-.398-.18-.865-.443-1.402-.787a40.847 40.847 0 0 1-1.764-1.205c-1.188.607-2.646.91-4.375.91-1.402 0-2.658-.223-3.768-.67-1.11-.447-2.043-1.09-2.796-1.93-.755-.84-1.322-1.837-1.703-2.993-.38-1.155-.572-2.413-.572-3.773 0-1.385.2-2.656.597-3.811.397-1.155.973-2.139 1.727-2.95a7.47 7.47 0 0 1 2.753-1.863c1.082-.43 2.31-.645 3.688-.645 1.868 0 3.472.38 4.812 1.137a7.372 7.372 0 0 1 3.042 3.233c.689 1.397 1.033 3.038 1.033 4.923 0 2.86-.775 5.126-2.323 6.798Zm-2.863-1.992a5.552 5.552 0 0 0 1.124-2.065c.242-.794.363-1.716.363-2.765 0-1.32-.213-2.463-.64-3.43-.425-.967-1.034-1.698-1.825-2.194-.79-.496-1.698-.744-2.722-.744-.73 0-1.404.138-2.022.412a4.444 4.444 0 0 0-1.598 1.199c-.447.524-.8 1.194-1.058 2.01-.258.815-.387 1.73-.387 2.747 0 2.073.484 3.669 1.45 4.788.968 1.118 2.189 1.677 3.664 1.677.606 0 1.229-.127 1.868-.38a9.554 9.554 0 0 0-1.444-.861c-.578-.287-.973-.508-1.186-.664-.213-.155-.32-.377-.32-.664 0-.245.103-.462.308-.651a.978.978 0 0 1 .676-.283c.745 0 1.995.623 3.749 1.868Z"/><path fill="#ED8F27" d="M45.946 65.795c-.33 0-.706-.098-1.152-.3-.41-.186-.895-.458-1.443-.81a40.18 40.18 0 0 1-1.616-1.098c-1.197.568-2.658.856-4.344.856-1.438 0-2.747-.233-3.892-.694-1.153-.463-2.135-1.142-2.92-2.016-.78-.87-1.376-1.916-1.77-3.11-.39-1.184-.588-2.489-.588-3.878 0-1.416.206-2.734.614-3.919.41-1.194 1.015-2.226 1.797-3.068a7.835 7.835 0 0 1 2.875-1.945c1.116-.444 2.397-.669 3.81-.669 1.917 0 3.591.397 4.976 1.18a7.73 7.73 0 0 1 3.176 3.376c.708 1.436 1.067 3.142 1.067 5.07 0 2.77-.724 5.032-2.154 6.73.457.294.924.569 1.402.826.664.358 1.099.64 1.328.866.27.265.407.632.407 1.091 0 .347-.151.688-.45 1.012-.306.332-.684.5-1.123.5Zm-4.15-2.981.164.118c.63.452 1.218.854 1.75 1.194.52.334.978.591 1.359.764.352.16.647.241.877.241a.817.817 0 0 0 .635-.286c.182-.198.274-.387.274-.562 0-.278-.068-.48-.208-.617-.124-.122-.43-.353-1.178-.756a20.592 20.592 0 0 1-1.775-1.068l-.32-.217.263-.284c1.483-1.6 2.235-3.812 2.235-6.572 0-1.824-.336-3.431-.999-4.776a7.077 7.077 0 0 0-2.908-3.09c-1.283-.727-2.847-1.094-4.648-1.094-1.328 0-2.528.209-3.565.621a7.174 7.174 0 0 0-2.633 1.78c-.719.773-1.276 1.726-1.657 2.832-.383 1.115-.578 2.36-.578 3.703 0 1.319.187 2.553.555 3.67.365 1.106.915 2.073 1.634 2.875.716.798 1.616 1.418 2.674 1.843 1.065.429 2.291.646 3.643.646 1.668 0 3.09-.294 4.225-.873l.18-.092Zm-4.43-1.272c-1.57 0-2.886-.603-3.914-1.793-1.017-1.175-1.532-2.858-1.532-5.004 0-1.046.136-2.004.403-2.848.27-.854.647-1.569 1.12-2.124a4.791 4.791 0 0 1 1.717-1.287 5.282 5.282 0 0 1 2.157-.44c1.082 0 2.058.267 2.899.794.844.53 1.501 1.317 1.952 2.341.443 1.006.668 2.205.668 3.564 0 1.077-.127 2.04-.377 2.862a5.905 5.905 0 0 1-1.192 2.187l-.198.226-.245-.174c-2.103-1.493-3.095-1.807-3.556-1.807a.653.653 0 0 0-.452.195c-.136.126-.2.255-.2.407 0 .182.057.303.184.396.196.144.58.358 1.138.635a9.958 9.958 0 0 1 1.495.891l.477.355-.553.22a5.397 5.397 0 0 1-1.991.404Zm-.05-12.833c-.679 0-1.314.13-1.887.384a4.135 4.135 0 0 0-1.48 1.11c-.415.488-.75 1.125-.993 1.894-.247.78-.372 1.67-.372 2.648 0 1.981.461 3.519 1.37 4.57.909 1.052 2.025 1.563 3.412 1.563.364 0 .739-.05 1.12-.15-.275-.166-.556-.32-.844-.462-.6-.298-1.004-.525-1.235-.693-.297-.218-.455-.54-.455-.932 0-.341.14-.642.414-.896.268-.245.57-.37.901-.37.785 0 1.993.573 3.688 1.752.381-.495.673-1.07.869-1.714.23-.76.348-1.657.348-2.668 0-1.267-.206-2.376-.611-3.296-.397-.9-.968-1.589-1.698-2.047-.733-.46-1.59-.693-2.546-.693Z"/><path fill="#B12800" d="m85.371 87.139-4.535-1.925 11.97-28.23 11.892 28.236-4.542 1.912L92.79 69.64l-7.419 17.499Z"/><path fill="#B12800" d="M86.49 75.55h12.157v4.927H86.491V75.55Z"/></svg>