<svg xmlns="http://www.w3.org/2000/svg" width="103" height="49" fill="none"><g filter="url(#a)"><path fill="#F0DFDF" d="M4.699 31V.455h3.699v27.264h14.199V31H4.699Zm32.454.477c-2.068 0-3.882-.492-5.444-1.476-1.55-.985-2.764-2.362-3.639-4.132-.865-1.77-1.297-3.838-1.297-6.204 0-2.387.432-4.47 1.297-6.25.875-1.78 2.088-3.161 3.64-4.146 1.56-.984 3.375-1.476 5.443-1.476 2.069 0 3.878.492 5.43 1.476 1.56.985 2.773 2.367 3.639 4.146.875 1.78 1.312 3.863 1.312 6.25 0 2.366-.437 4.434-1.312 6.204-.866 1.77-2.078 3.147-3.64 4.132-1.55.984-3.36 1.476-5.429 1.476Zm0-3.162c1.571 0 2.864-.402 3.878-1.208 1.014-.805 1.765-1.864 2.252-3.177.488-1.312.731-2.734.731-4.265 0-1.531-.243-2.958-.73-4.28-.488-1.323-1.239-2.392-2.253-3.207-1.014-.816-2.307-1.224-3.878-1.224-1.57 0-2.863.408-3.877 1.224-1.015.815-1.765 1.884-2.253 3.206-.487 1.323-.73 2.75-.73 4.28 0 1.532.243 2.954.73 4.266.488 1.313 1.238 2.372 2.253 3.177 1.014.806 2.306 1.208 3.877 1.208Zm25.001 11.753c-1.7 0-3.162-.219-4.385-.656-1.223-.428-2.242-.994-3.057-1.7-.806-.696-1.447-1.442-1.924-2.238l2.804-1.968c.318.417.72.895 1.208 1.431.487.547 1.153 1.02 1.998 1.417.856.408 1.974.612 3.356.612 1.85 0 3.376-.447 4.58-1.342 1.202-.895 1.804-2.297 1.804-4.206v-4.654h-.298c-.259.418-.627.935-1.104 1.551-.468.607-1.144 1.149-2.029 1.626-.875.467-2.058.701-3.55.701-1.849 0-3.51-.438-4.98-1.313-1.462-.875-2.62-2.147-3.476-3.818-.845-1.67-1.268-3.698-1.268-6.085 0-2.346.413-4.39 1.238-6.13.826-1.75 1.974-3.102 3.446-4.057 1.471-.964 3.171-1.446 5.1-1.446 1.492 0 2.675.248 3.55.745.885.488 1.561 1.044 2.028 1.67A23.87 23.87 0 0 1 68.3 11.73h.358V8.09h3.4v23.566c0 1.969-.447 3.57-1.342 4.803-.885 1.243-2.078 2.152-3.58 2.73-1.49.586-3.151.88-4.98.88Zm-.119-12.588c1.412 0 2.605-.323 3.58-.97.974-.646 1.715-1.575 2.222-2.788.507-1.213.76-2.665.76-4.356 0-1.65-.248-3.107-.745-4.37-.497-1.262-1.233-2.252-2.208-2.968-.974-.716-2.177-1.074-3.609-1.074-1.491 0-2.734.378-3.729 1.134-.984.756-1.725 1.77-2.222 3.043-.487 1.272-.73 2.684-.73 4.235 0 1.591.248 2.998.745 4.221.507 1.213 1.253 2.168 2.237 2.864.994.686 2.227 1.03 3.699 1.03Zm25.773 3.997c-2.069 0-3.883-.492-5.444-1.476-1.551-.985-2.764-2.362-3.64-4.132-.864-1.77-1.297-3.838-1.297-6.204 0-2.387.433-4.47 1.298-6.25.875-1.78 2.088-3.161 3.639-4.146 1.56-.984 3.376-1.476 5.444-1.476s3.877.492 5.429 1.476c1.56.985 2.774 2.367 3.639 4.146.875 1.78 1.312 3.863 1.312 6.25 0 2.366-.437 4.434-1.312 6.204-.865 1.77-2.078 3.147-3.64 4.132-1.55.984-3.36 1.476-5.428 1.476Zm0-3.162c1.57 0 2.863-.402 3.877-1.208 1.015-.805 1.766-1.864 2.253-3.177.487-1.312.73-2.734.73-4.265 0-1.531-.243-2.958-.73-4.28-.487-1.323-1.238-2.392-2.252-3.207-1.015-.816-2.307-1.224-3.878-1.224-1.571 0-2.864.408-3.878 1.224-1.014.815-1.765 1.884-2.252 3.206-.487 1.323-.731 2.75-.731 4.28 0 1.532.243 2.954.73 4.266.488 1.313 1.239 2.372 2.253 3.177 1.014.806 2.307 1.208 3.878 1.208Z"/></g><defs><filter id="a" width="101.49" height="47.614" x=".699" y=".455" color-interpolation-filters="sRGB" filterUnits="userSpaceOnUse"><feFlood flood-opacity="0" result="BackgroundImageFix"/><feColorMatrix in="SourceAlpha" result="hardAlpha" values="0 0 0 0 0 0 0 0 0 0 0 0 0 0 0 0 0 0 127 0"/><feOffset dy="4"/><feGaussianBlur stdDeviation="2"/><feComposite in2="hardAlpha" operator="out"/><feColorMatrix values="0 0 0 0 0 0 0 0 0 0 0 0 0 0 0 0 0 0 0.25 0"/><feBlend in2="BackgroundImageFix" result="effect1_dropShadow_57_328"/><feBlend in="SourceGraphic" in2="effect1_dropShadow_57_328" result="shape"/></filter></defs></svg>